<svg id="svg" version="1.1" xmlns="http://www.w3.org/2000/svg" xmlns:xlink="http://www.w3.org/1999/xlink" width="400" height="400" viewBox="0, 0, 400,400"><g id="svgg"><path id="path0" d="M206.800 32.800 C 206.800 33.020,205.900 33.200,204.800 33.200 C 203.700 33.200,202.800 33.380,202.800 33.600 C 202.800 33.820,201.900 34.000,200.800 34.000 C 199.700 34.000,198.800 34.180,198.800 34.400 C 198.800 34.620,198.080 34.800,197.200 34.800 C 196.320 34.800,195.600 34.980,195.600 35.200 C 195.600 35.420,194.981 35.600,194.224 35.600 C 193.467 35.600,192.736 35.780,192.600 36.000 C 192.464 36.220,191.553 36.400,190.576 36.400 C 189.599 36.400,188.800 36.580,188.800 36.800 C 188.800 37.020,188.181 37.200,187.424 37.200 C 186.667 37.200,185.936 37.380,185.800 37.600 C 185.664 37.820,185.023 38.000,184.376 38.000 C 183.729 38.000,183.200 38.180,183.200 38.400 C 183.200 38.620,182.761 38.800,182.224 38.800 C 181.687 38.800,181.136 38.980,181.000 39.200 C 180.864 39.420,180.403 39.600,179.976 39.600 C 179.549 39.600,179.200 39.780,179.200 40.000 C 179.200 40.220,178.840 40.400,178.400 40.400 C 177.960 40.400,177.600 40.580,177.600 40.800 C 177.600 41.020,177.285 41.206,176.900 41.213 C 176.515 41.220,175.851 41.490,175.424 41.813 C 174.996 42.136,174.321 42.400,173.924 42.400 C 173.526 42.400,173.200 42.559,173.200 42.753 C 173.200 42.948,172.885 43.207,172.500 43.329 C 171.591 43.617,169.647 44.812,168.642 45.700 C 168.206 46.085,167.685 46.400,167.485 46.400 C 167.285 46.400,166.617 46.940,166.000 47.600 C 165.383 48.260,164.681 48.800,164.440 48.800 C 164.198 48.800,164.000 48.980,164.000 49.200 C 164.000 49.420,163.808 49.600,163.574 49.600 C 162.952 49.600,156.800 56.097,156.800 56.754 C 156.800 56.934,156.260 57.646,155.600 58.337 C 154.940 59.028,154.400 59.735,154.400 59.908 C 154.400 60.081,154.040 60.483,153.600 60.800 C 153.160 61.117,152.800 61.607,152.800 61.888 C 152.800 62.170,152.620 62.400,152.400 62.400 C 152.180 62.400,152.000 62.670,152.000 63.000 C 152.000 63.330,151.820 63.600,151.600 63.600 C 151.380 63.600,151.200 63.960,151.200 64.400 C 151.200 64.840,151.020 65.200,150.800 65.200 C 150.580 65.200,150.400 65.560,150.400 66.000 C 150.400 66.440,150.241 66.800,150.047 66.800 C 149.852 66.800,149.599 67.160,149.484 67.600 C 149.292 68.336,148.938 68.400,145.061 68.400 C 142.683 68.400,140.739 68.574,140.600 68.800 C 140.464 69.020,139.823 69.200,139.176 69.200 C 138.529 69.200,138.000 69.380,138.000 69.600 C 138.000 69.820,137.460 70.000,136.800 70.000 C 136.140 70.000,135.600 70.180,135.600 70.400 C 135.600 70.620,135.060 70.800,134.400 70.800 C 133.740 70.800,133.200 70.980,133.200 71.200 C 133.200 71.420,132.840 71.600,132.400 71.600 C 131.960 71.600,131.600 71.780,131.600 72.000 C 131.600 72.220,131.330 72.400,131.000 72.400 C 130.670 72.400,130.400 72.580,130.400 72.800 C 130.400 73.020,130.130 73.200,129.800 73.200 C 129.470 73.200,129.200 73.336,129.200 73.502 C 129.200 73.669,128.705 74.031,128.100 74.308 C 127.495 74.585,126.100 75.617,125.000 76.602 C 123.900 77.587,122.895 78.394,122.768 78.396 C 122.640 78.398,122.280 78.895,121.968 79.500 C 121.655 80.105,120.905 81.077,120.300 81.660 C 119.695 82.244,119.200 82.926,119.200 83.177 C 119.200 83.428,118.840 84.020,118.400 84.492 C 117.960 84.964,117.600 85.587,117.600 85.875 C 117.600 86.164,117.420 86.400,117.200 86.400 C 116.980 86.400,116.800 86.760,116.800 87.200 C 116.800 87.640,116.620 88.000,116.400 88.000 C 116.180 88.000,116.000 88.540,116.000 89.200 C 116.000 89.860,115.820 90.400,115.600 90.400 C 115.380 90.400,115.200 90.839,115.200 91.376 C 115.200 91.913,115.020 92.464,114.800 92.600 C 114.580 92.736,114.400 93.467,114.400 94.224 C 114.400 94.981,114.220 95.600,114.000 95.600 C 113.747 95.600,113.600 98.467,113.600 103.400 C 113.600 108.333,113.747 111.200,114.000 111.200 C 114.225 111.200,114.400 112.325,114.400 113.776 C 114.400 115.193,114.580 116.464,114.800 116.600 C 115.020 116.736,115.200 117.996,115.200 119.400 C 115.200 120.804,115.380 122.064,115.600 122.200 C 115.820 122.336,116.000 123.607,116.000 125.024 C 116.000 126.475,116.175 127.600,116.400 127.600 C 116.629 127.600,116.800 128.800,116.800 130.400 C 116.800 132.000,116.971 133.200,117.200 133.200 C 117.425 133.200,117.600 134.325,117.600 135.776 C 117.600 137.193,117.780 138.464,118.000 138.600 C 118.220 138.736,118.400 139.197,118.400 139.624 C 118.400 140.652,119.275 140.606,121.323 139.469 C 123.946 138.012,124.605 137.890,131.200 137.637 L 137.400 137.400 137.600 127.800 L 137.800 118.200 142.553 110.200 C 146.866 102.940,151.871 94.496,153.697 91.400 C 154.086 90.740,154.707 89.615,155.076 88.900 C 156.024 87.066,156.435 87.211,160.331 90.755 C 173.623 102.844,188.071 110.673,205.792 115.388 C 216.358 118.199,222.880 118.772,244.493 118.787 L 262.385 118.800 262.493 128.100 L 262.600 137.400 268.800 137.618 C 272.210 137.737,275.360 137.982,275.800 138.161 C 276.240 138.340,277.363 138.827,278.296 139.243 C 280.807 140.364,281.600 140.258,281.600 138.800 C 281.600 138.140,281.780 137.600,282.000 137.600 C 282.220 137.600,282.400 136.970,282.400 136.200 C 282.400 135.430,282.580 134.800,282.800 134.800 C 283.020 134.800,283.200 134.080,283.200 133.200 C 283.200 132.320,283.380 131.600,283.600 131.600 C 283.820 131.600,284.000 130.880,284.000 130.000 C 284.000 129.120,284.180 128.400,284.400 128.400 C 284.620 128.400,284.800 127.680,284.800 126.800 C 284.800 125.920,284.980 125.200,285.200 125.200 C 285.420 125.200,285.600 124.491,285.600 123.624 C 285.600 122.757,285.780 121.936,286.000 121.800 C 286.220 121.664,286.400 120.663,286.400 119.576 C 286.400 118.489,286.568 117.600,286.774 117.600 C 287.817 117.600,287.817 96.081,286.773 95.020 C 286.568 94.811,286.400 93.686,286.400 92.520 C 286.400 91.354,286.220 90.400,286.000 90.400 C 285.780 90.400,285.600 89.680,285.600 88.800 C 285.600 87.920,285.420 87.200,285.200 87.200 C 284.980 87.200,284.797 86.795,284.794 86.300 C 284.787 85.324,283.918 82.585,283.474 82.141 C 283.323 81.990,283.200 81.447,283.200 80.933 C 283.200 80.420,283.020 80.000,282.800 80.000 C 282.580 80.000,282.400 79.657,282.400 79.238 C 282.400 78.422,280.799 75.088,280.300 74.867 C 280.135 74.793,280.000 74.388,280.000 73.967 C 280.000 73.545,279.820 73.200,279.600 73.200 C 279.380 73.200,279.200 72.840,279.200 72.400 C 279.200 71.960,279.020 71.600,278.800 71.600 C 278.580 71.600,278.400 71.240,278.400 70.800 C 278.400 70.360,278.220 70.000,278.000 70.000 C 277.780 70.000,277.600 69.680,277.600 69.288 C 277.600 68.897,277.240 68.317,276.800 68.000 C 276.360 67.683,276.000 67.186,276.000 66.895 C 276.000 66.604,275.819 66.149,275.599 65.883 C 275.378 65.617,274.541 64.410,273.738 63.200 C 272.254 60.961,270.945 59.373,266.880 54.879 C 264.556 52.310,264.341 52.092,260.691 48.600 C 258.045 46.069,253.734 42.808,252.300 42.251 C 251.695 42.017,251.200 41.684,251.200 41.512 C 251.200 41.341,250.840 41.200,250.400 41.200 C 249.960 41.200,249.600 41.020,249.600 40.800 C 249.600 40.580,249.240 40.400,248.800 40.400 C 248.360 40.400,248.000 40.220,248.000 40.000 C 248.000 39.780,247.640 39.600,247.200 39.600 C 246.760 39.600,246.400 39.420,246.400 39.200 C 246.400 38.980,246.040 38.800,245.600 38.800 C 245.160 38.800,244.800 38.620,244.800 38.400 C 244.800 38.180,244.440 38.000,244.000 38.000 C 243.560 38.000,243.200 37.820,243.200 37.600 C 243.200 37.380,242.928 37.200,242.595 37.200 C 242.262 37.200,241.587 36.992,241.095 36.738 C 239.169 35.742,238.783 35.600,238.005 35.600 C 237.562 35.600,237.200 35.420,237.200 35.200 C 237.200 34.980,236.480 34.800,235.600 34.800 C 234.720 34.800,234.000 34.620,234.000 34.400 C 234.000 34.180,233.280 34.000,232.400 34.000 C 231.520 34.000,230.800 33.820,230.800 33.600 C 230.800 33.380,229.900 33.200,228.800 33.200 C 227.700 33.200,226.800 33.020,226.800 32.800 C 226.800 32.544,223.200 32.400,216.800 32.400 C 210.400 32.400,206.800 32.544,206.800 32.800 M160.336 131.738 C 155.575 133.854,154.984 140.151,159.296 142.812 C 161.278 144.035,183.192 143.853,184.873 142.600 C 188.611 139.813,188.261 134.419,184.192 132.115 C 182.326 131.058,162.568 130.746,160.336 131.738 M215.883 132.036 C 211.385 134.410,211.497 140.653,216.080 143.038 C 218.005 144.039,239.004 143.838,240.704 142.802 C 244.754 140.332,244.558 134.422,240.346 132.027 C 238.151 130.779,218.251 130.786,215.883 132.036 M170.235 150.790 C 164.111 153.935,164.146 162.205,170.294 164.840 C 178.997 168.571,185.463 156.899,177.711 151.451 C 175.496 149.894,172.496 149.629,170.235 150.790 M223.200 150.934 C 217.335 153.903,217.382 161.812,223.284 164.839 C 226.102 166.284,230.064 165.533,232.262 163.139 C 238.026 156.857,230.780 147.097,223.200 150.934 " stroke="none" fill="#54340c" fill-rule="evenodd"></path><path id="path1" d="M155.076 88.900 C 154.707 89.615,154.086 90.740,153.697 91.400 C 151.871 94.496,146.866 102.940,142.553 110.200 L 137.800 118.200 137.600 127.800 L 137.400 137.400 131.200 137.637 C 124.605 137.890,123.946 138.012,121.323 139.469 C 120.401 139.981,119.262 140.400,118.792 140.400 C 117.613 140.400,113.600 144.578,113.600 145.805 C 113.600 146.132,113.420 146.400,113.200 146.400 C 112.980 146.400,112.800 146.850,112.800 147.400 C 112.800 147.950,112.620 148.400,112.400 148.400 C 111.892 148.400,111.851 169.320,112.356 170.305 C 112.552 170.687,113.137 171.899,113.656 172.998 C 114.682 175.168,118.410 179.200,119.391 179.200 C 119.726 179.200,120.000 179.380,120.000 179.600 C 120.000 179.820,120.360 180.000,120.800 180.000 C 121.240 180.000,121.600 180.180,121.600 180.400 C 121.600 180.620,121.960 180.800,122.400 180.800 C 122.840 180.800,123.200 180.980,123.200 181.200 C 123.200 181.452,125.933 181.600,130.600 181.600 L 138.000 181.600 138.000 184.000 C 138.000 185.333,138.178 186.400,138.400 186.400 C 138.620 186.400,138.800 187.390,138.800 188.600 C 138.800 189.810,138.980 190.800,139.200 190.800 C 139.420 190.800,139.600 191.779,139.600 192.976 C 139.600 194.173,139.780 195.264,140.000 195.400 C 140.220 195.536,140.400 196.357,140.400 197.224 C 140.400 198.091,140.562 198.800,140.760 198.800 C 140.958 198.800,141.210 199.565,141.321 200.500 C 141.432 201.435,141.819 203.460,142.182 205.000 C 142.544 206.540,142.942 208.297,143.067 208.905 C 143.191 209.513,143.451 210.108,143.646 210.229 C 143.841 210.349,144.000 210.977,144.000 211.624 C 144.000 212.271,144.180 212.800,144.400 212.800 C 144.620 212.800,144.800 213.340,144.800 214.000 C 144.800 214.660,144.980 215.200,145.200 215.200 C 145.420 215.200,145.600 215.562,145.600 216.005 C 145.600 216.783,145.742 217.169,146.738 219.095 C 146.992 219.587,147.200 220.352,147.200 220.795 C 147.200 221.238,147.380 221.600,147.600 221.600 C 147.820 221.600,148.000 221.949,148.000 222.376 C 148.000 222.803,148.180 223.264,148.400 223.400 C 148.620 223.536,148.800 223.997,148.800 224.424 C 148.800 224.851,148.980 225.200,149.200 225.200 C 149.420 225.200,149.600 225.560,149.600 226.000 C 149.600 226.440,149.746 226.800,149.925 226.800 C 150.104 226.800,150.498 227.430,150.800 228.200 C 151.102 228.970,151.496 229.600,151.675 229.600 C 151.854 229.600,152.000 229.870,152.000 230.200 C 152.000 230.530,152.180 230.800,152.400 230.800 C 152.620 230.800,152.800 231.120,152.800 231.512 C 152.800 231.903,153.160 232.483,153.600 232.800 C 154.040 233.117,154.400 233.607,154.400 233.888 C 154.400 234.170,154.580 234.400,154.800 234.400 C 155.020 234.400,155.200 234.577,155.200 234.793 C 155.200 235.010,155.875 235.925,156.700 236.828 C 160.887 241.410,162.629 243.196,162.913 243.198 C 163.086 243.199,163.857 243.830,164.627 244.600 C 165.397 245.370,166.173 246.000,166.352 246.000 C 166.531 246.000,167.105 246.370,167.627 246.823 L 168.576 247.646 168.736 314.623 L 168.897 381.600 174.972 381.600 L 181.048 381.600 181.542 377.300 C 181.815 374.935,182.199 371.650,182.396 370.000 C 182.594 368.350,182.955 365.110,183.200 362.800 C 183.445 360.490,183.806 357.250,184.003 355.600 C 184.635 350.305,185.594 341.688,186.408 334.000 C 186.653 331.690,187.006 328.800,187.193 327.578 C 187.519 325.444,187.394 324.943,184.004 314.812 C 182.064 309.013,180.557 304.073,180.657 303.834 C 180.756 303.595,185.174 301.254,190.475 298.631 L 200.112 293.862 209.894 298.766 C 218.852 303.256,219.653 303.742,219.411 304.535 C 219.265 305.011,218.991 305.940,218.801 306.600 C 218.611 307.260,217.171 311.580,215.601 316.200 L 212.747 324.600 213.159 329.200 C 213.386 331.730,213.846 336.230,214.181 339.200 C 214.516 342.170,214.981 346.310,215.215 348.400 C 215.448 350.490,215.805 353.640,216.009 355.400 C 216.355 358.398,216.586 360.480,217.628 370.000 C 217.856 372.090,218.214 375.005,218.422 376.477 C 218.630 377.949,218.800 379.704,218.800 380.377 L 218.800 381.600 224.952 381.600 L 231.103 381.600 231.264 314.660 C 231.435 243.050,231.341 246.400,233.171 246.400 C 233.407 246.400,233.600 246.220,233.600 246.000 C 233.600 245.780,233.798 245.600,234.040 245.600 C 234.281 245.600,234.983 245.060,235.600 244.400 C 236.217 243.740,236.844 243.200,236.993 243.200 C 237.375 243.200,242.400 238.210,242.400 237.831 C 242.400 237.660,242.940 237.017,243.600 236.400 C 244.260 235.783,244.800 235.081,244.800 234.840 C 244.800 234.598,244.980 234.400,245.200 234.400 C 245.420 234.400,245.600 234.170,245.600 233.888 C 245.600 233.607,245.960 233.117,246.400 232.800 C 246.840 232.483,247.200 231.903,247.200 231.512 C 247.200 231.120,247.380 230.800,247.600 230.800 C 247.820 230.800,248.000 230.564,248.000 230.275 C 248.000 229.987,248.360 229.364,248.800 228.892 C 249.240 228.420,249.600 227.756,249.600 227.417 C 249.600 227.078,249.780 226.800,250.000 226.800 C 250.220 226.800,250.400 226.440,250.400 226.000 C 250.400 225.560,250.580 225.200,250.800 225.200 C 251.020 225.200,251.200 224.928,251.200 224.595 C 251.200 224.262,251.359 223.677,251.553 223.295 C 251.917 222.579,252.611 220.954,253.300 219.200 C 253.516 218.650,253.852 217.887,254.047 217.505 C 254.241 217.123,254.400 216.448,254.400 216.005 C 254.400 215.562,254.580 215.200,254.800 215.200 C 255.020 215.200,255.200 214.660,255.200 214.000 C 255.200 213.340,255.380 212.800,255.600 212.800 C 255.820 212.800,256.000 212.348,256.000 211.795 C 256.000 211.242,256.162 210.477,256.361 210.095 C 256.560 209.713,256.938 208.590,257.203 207.600 C 257.467 206.610,257.839 205.398,258.030 204.907 C 258.220 204.416,258.496 202.841,258.643 201.407 C 258.790 199.973,259.066 198.800,259.255 198.800 C 259.445 198.800,259.600 198.091,259.600 197.224 C 259.600 196.357,259.780 195.536,260.000 195.400 C 260.220 195.264,260.400 194.173,260.400 192.976 C 260.400 191.779,260.580 190.800,260.800 190.800 C 261.020 190.800,261.200 189.810,261.200 188.600 C 261.200 187.390,261.380 186.400,261.600 186.400 C 261.822 186.400,262.000 185.333,262.000 184.000 L 262.000 181.600 269.400 181.600 C 274.067 181.600,276.800 181.452,276.800 181.200 C 276.800 180.980,277.160 180.800,277.600 180.800 C 278.040 180.800,278.400 180.620,278.400 180.400 C 278.400 180.180,278.760 180.000,279.200 180.000 C 279.640 180.000,280.000 179.820,280.000 179.600 C 280.000 179.380,280.274 179.200,280.609 179.200 C 281.590 179.200,285.318 175.168,286.344 172.998 C 286.863 171.899,287.448 170.687,287.644 170.305 C 288.448 168.737,288.070 149.306,287.200 147.506 C 286.760 146.595,286.400 145.614,286.400 145.325 C 286.400 145.036,286.220 144.800,286.000 144.800 C 285.780 144.800,285.600 144.593,285.600 144.340 C 285.600 143.583,281.615 140.000,280.772 140.000 C 280.343 140.000,279.228 139.659,278.296 139.243 C 277.363 138.827,276.240 138.340,275.800 138.161 C 275.360 137.982,272.210 137.737,268.800 137.618 L 262.600 137.400 262.493 128.100 L 262.385 118.800 244.493 118.787 C 222.880 118.772,216.358 118.199,205.792 115.388 C 188.071 110.673,173.623 102.844,160.331 90.755 C 156.435 87.211,156.024 87.066,155.076 88.900 M184.192 132.115 C 188.261 134.419,188.611 139.813,184.873 142.600 C 183.192 143.853,161.278 144.035,159.296 142.812 C 154.984 140.151,155.575 133.854,160.336 131.738 C 162.568 130.746,182.326 131.058,184.192 132.115 M240.346 132.027 C 244.558 134.422,244.754 140.332,240.704 142.802 C 239.004 143.838,218.005 144.039,216.080 143.038 C 211.497 140.653,211.385 134.410,215.883 132.036 C 218.251 130.786,238.151 130.779,240.346 132.027 M177.711 151.451 C 185.463 156.899,178.997 168.571,170.294 164.840 C 166.314 163.134,164.581 158.560,166.426 154.634 C 168.529 150.159,173.770 148.681,177.711 151.451 M229.251 150.564 C 233.458 152.322,235.402 156.670,233.762 160.651 C 231.094 167.125,222.662 167.283,219.447 160.920 C 216.534 155.154,223.252 148.057,229.251 150.564 " stroke="none" fill="#f4cbaa" fill-rule="evenodd"></path><path id="path2" d="M167.000 268.800 C 166.864 269.020,166.393 269.200,165.953 269.200 C 165.513 269.200,165.264 269.380,165.400 269.600 C 165.536 269.820,165.277 270.000,164.824 270.000 C 164.371 270.000,164.000 270.180,164.000 270.400 C 164.000 270.620,163.766 270.800,163.480 270.800 C 162.744 270.800,160.807 271.741,160.803 272.100 C 160.801 272.265,160.566 272.400,160.280 272.400 C 159.544 272.400,157.607 273.341,157.603 273.700 C 157.601 273.865,157.240 274.000,156.800 274.000 C 156.360 274.000,156.000 274.180,156.000 274.400 C 156.000 274.620,155.734 274.800,155.410 274.800 C 155.085 274.800,154.243 275.151,153.538 275.579 C 152.833 276.008,152.109 276.267,151.928 276.156 C 151.748 276.044,151.600 276.143,151.600 276.376 C 151.600 276.609,151.169 276.800,150.643 276.800 C 150.116 276.800,149.575 277.089,149.439 277.442 C 149.294 277.819,148.940 277.986,148.576 277.846 C 148.223 277.711,148.063 277.778,148.203 278.005 C 148.420 278.355,147.574 278.594,146.670 278.437 C 146.489 278.406,146.455 278.565,146.594 278.790 C 146.828 279.169,145.942 279.404,145.000 279.214 C 144.780 279.170,144.725 279.259,144.879 279.412 C 145.168 279.702,141.751 281.595,140.933 281.598 C 140.677 281.599,140.407 281.737,140.333 281.904 C 140.154 282.312,133.533 285.607,132.900 285.603 C 132.625 285.601,132.400 285.780,132.400 286.000 C 132.400 286.220,132.130 286.400,131.800 286.400 C 131.470 286.400,131.200 286.580,131.200 286.800 C 131.200 287.020,130.840 287.200,130.400 287.200 C 129.960 287.200,129.600 287.380,129.600 287.600 C 129.600 287.820,129.240 288.000,128.800 288.000 C 128.360 288.000,128.000 288.180,128.000 288.400 C 128.000 288.620,127.550 288.800,127.000 288.800 C 126.450 288.800,126.000 288.980,126.000 289.200 C 126.000 289.420,125.730 289.600,125.400 289.600 C 125.070 289.600,124.800 289.780,124.800 290.000 C 124.800 290.220,124.440 290.400,124.000 290.400 C 123.560 290.400,123.200 290.580,123.200 290.800 C 123.200 291.020,122.840 291.200,122.400 291.200 C 121.960 291.200,121.600 291.380,121.600 291.600 C 121.600 291.820,121.274 292.000,120.876 292.000 C 120.479 292.000,119.804 292.264,119.376 292.587 C 118.949 292.910,118.214 293.180,117.743 293.187 C 117.271 293.194,116.775 293.489,116.639 293.842 C 116.504 294.194,116.140 294.386,115.830 294.267 C 115.520 294.148,115.160 294.328,115.030 294.667 C 114.893 295.024,114.534 295.183,114.176 295.046 C 113.823 294.911,113.663 294.978,113.803 295.205 C 114.029 295.571,113.128 295.801,112.200 295.614 C 111.980 295.570,111.938 295.672,112.107 295.841 C 112.406 296.139,109.073 297.931,108.133 297.977 C 107.877 297.990,107.607 298.137,107.533 298.305 C 107.351 298.723,99.128 302.806,98.476 302.803 C 98.188 302.801,98.064 302.980,98.200 303.200 C 98.336 303.420,98.202 303.600,97.903 303.600 C 97.149 303.600,95.207 304.535,95.203 304.900 C 95.201 305.065,94.966 305.200,94.680 305.200 C 93.944 305.200,92.007 306.141,92.003 306.500 C 92.001 306.665,91.640 306.800,91.200 306.800 C 90.760 306.800,90.400 306.980,90.400 307.200 C 90.400 307.420,90.040 307.600,89.600 307.600 C 89.160 307.600,88.800 307.780,88.800 308.000 C 88.800 308.220,88.480 308.400,88.089 308.400 C 87.698 308.400,86.348 308.934,85.089 309.588 C 83.830 310.241,82.800 310.656,82.800 310.511 C 82.800 310.366,82.557 310.579,82.261 310.985 C 81.921 311.449,81.528 311.603,81.199 311.399 C 80.854 311.186,80.773 311.233,80.962 311.538 C 81.228 311.969,80.411 312.218,79.400 312.014 C 79.180 311.970,79.131 312.064,79.291 312.224 C 79.593 312.526,74.620 315.200,73.756 315.200 C 73.487 315.200,73.207 315.337,73.133 315.504 C 72.950 315.921,66.326 319.207,65.676 319.203 C 65.388 319.201,65.264 319.380,65.400 319.600 C 65.536 319.820,65.277 320.000,64.824 320.000 C 64.371 320.000,64.000 320.180,64.000 320.400 C 64.000 320.620,63.766 320.800,63.480 320.800 C 62.744 320.800,60.807 321.741,60.803 322.100 C 60.801 322.265,60.566 322.400,60.280 322.400 C 59.544 322.400,57.607 323.341,57.603 323.700 C 57.601 323.865,57.240 324.000,56.800 324.000 C 56.360 324.000,56.000 324.180,56.000 324.400 C 56.000 324.620,55.759 324.800,55.464 324.800 C 54.674 324.800,49.939 327.192,48.930 328.100 C 48.409 328.569,47.847 328.761,47.530 328.578 C 47.238 328.409,47.129 328.415,47.287 328.590 C 47.548 328.878,44.391 331.600,43.795 331.600 C 43.657 331.600,43.273 331.870,42.943 332.200 C 42.613 332.530,42.449 332.800,42.580 332.800 C 42.710 332.800,41.508 334.118,39.908 335.729 C 37.001 338.657,35.600 340.241,35.600 340.600 C 35.600 340.798,34.588 342.082,33.675 343.041 C 33.387 343.344,33.124 343.949,33.091 344.386 C 33.058 344.822,32.788 345.273,32.490 345.387 C 32.193 345.501,32.061 345.776,32.198 345.997 C 32.335 346.219,32.257 346.400,32.024 346.400 C 31.791 346.400,31.600 346.681,31.600 347.024 C 31.600 347.367,31.416 347.533,31.190 347.394 C 30.965 347.255,30.806 347.289,30.837 347.470 C 31.036 348.615,30.751 349.619,30.300 349.359 C 30.025 349.201,29.925 349.211,30.079 349.381 C 30.326 349.655,30.134 350.352,28.974 353.400 C 28.547 354.520,28.506 354.694,28.450 355.624 C 28.422 356.077,28.245 356.352,28.056 356.235 C 27.867 356.118,27.765 356.502,27.829 357.088 C 27.894 357.674,27.688 358.771,27.373 359.526 C 27.058 360.280,26.800 361.765,26.800 362.825 C 26.800 363.885,26.624 364.861,26.409 364.994 C 26.195 365.127,26.034 366.294,26.052 367.587 C 26.070 368.880,25.960 370.140,25.808 370.387 C 25.490 370.901,25.335 372.232,24.952 377.700 L 24.679 381.600 40.540 381.600 L 56.400 381.600 56.400 367.859 C 56.400 354.270,56.410 354.104,57.300 352.789 C 59.907 348.939,65.683 349.162,67.953 353.202 C 68.769 354.654,68.800 355.201,68.800 368.154 L 68.800 381.600 103.243 381.600 C 135.882 381.600,137.671 381.563,137.414 380.900 C 132.752 368.870,118.885 324.955,119.521 324.236 C 123.533 319.699,130.081 312.288,131.200 311.016 C 131.970 310.141,133.512 308.430,134.627 307.213 C 135.742 305.996,142.942 297.903,150.627 289.230 C 158.312 280.556,165.360 272.636,166.289 271.630 C 167.217 270.623,167.982 269.485,167.989 269.100 C 168.001 268.340,167.398 268.157,167.000 268.800 M232.230 269.300 C 232.386 269.795,233.883 271.726,235.557 273.591 C 239.232 277.687,238.979 277.403,249.818 289.600 C 254.608 294.990,259.713 300.745,261.163 302.388 C 262.614 304.032,264.532 306.192,265.426 307.188 C 266.320 308.185,267.689 309.720,268.467 310.600 C 269.245 311.480,272.203 314.812,275.041 318.005 C 277.878 321.197,280.436 324.109,280.724 324.475 C 281.154 325.021,266.142 371.722,262.586 380.900 C 262.329 381.563,264.118 381.600,296.757 381.600 L 331.200 381.600 331.200 368.059 C 331.200 354.637,331.208 354.506,332.110 353.169 C 335.537 348.083,342.486 349.343,343.628 355.257 C 343.814 356.216,343.973 362.535,343.983 369.300 L 344.000 381.600 359.651 381.600 L 375.303 381.600 375.027 378.300 C 374.876 376.485,374.714 374.100,374.668 373.000 C 374.621 371.900,374.437 370.767,374.257 370.483 C 374.078 370.199,373.875 369.119,373.806 368.083 C 373.658 365.870,372.952 361.058,372.443 358.793 C 372.246 357.917,372.192 357.200,372.323 357.200 C 372.453 357.200,372.344 356.984,372.080 356.720 C 371.816 356.456,371.600 355.940,371.600 355.573 C 371.600 354.927,370.302 351.314,369.564 349.905 C 369.364 349.523,369.200 349.036,369.200 348.823 C 369.200 348.610,368.660 347.519,368.000 346.400 C 367.340 345.281,366.800 344.103,366.800 343.782 C 366.800 343.462,366.620 343.200,366.400 343.200 C 366.180 343.200,366.000 342.970,366.000 342.688 C 366.000 342.407,365.640 341.917,365.200 341.600 C 364.760 341.283,364.400 340.793,364.400 340.512 C 364.400 340.230,364.220 340.000,364.000 340.000 C 363.780 340.000,363.600 339.820,363.600 339.601 C 363.600 339.381,362.978 338.542,362.217 337.735 C 361.456 336.929,360.944 336.091,361.079 335.873 C 361.213 335.655,361.127 335.598,360.886 335.747 C 360.645 335.896,360.212 335.735,359.924 335.390 C 359.476 334.853,358.743 334.132,355.844 331.378 C 355.600 331.146,354.726 330.500,353.902 329.942 C 353.078 329.385,352.538 328.781,352.702 328.600 C 352.866 328.420,352.796 328.388,352.547 328.530 C 352.298 328.672,351.418 328.329,350.591 327.768 C 348.747 326.517,345.239 324.800,344.525 324.800 C 344.236 324.800,344.000 324.620,344.000 324.400 C 344.000 324.180,343.640 324.000,343.200 324.000 C 342.760 324.000,342.400 323.820,342.400 323.600 C 342.400 323.380,342.130 323.200,341.800 323.200 C 341.470 323.200,341.200 323.020,341.200 322.800 C 341.200 322.580,340.851 322.400,340.424 322.400 C 339.997 322.400,339.536 322.220,339.400 322.000 C 339.264 321.780,338.803 321.600,338.376 321.600 C 337.949 321.600,337.600 321.420,337.600 321.200 C 337.600 320.980,337.330 320.800,337.000 320.800 C 336.670 320.800,336.400 320.620,336.400 320.400 C 336.400 320.180,336.147 320.000,335.838 320.000 C 335.172 320.000,331.859 318.332,331.667 317.900 C 331.593 317.735,331.188 317.600,330.767 317.600 C 330.345 317.600,330.000 317.420,330.000 317.200 C 330.000 316.980,329.640 316.800,329.200 316.800 C 328.760 316.800,328.400 316.620,328.400 316.400 C 328.400 316.180,328.040 316.000,327.600 316.000 C 327.160 316.000,326.800 315.820,326.800 315.600 C 326.800 315.380,326.440 315.200,326.000 315.200 C 325.560 315.200,325.200 315.020,325.200 314.800 C 325.200 314.580,324.840 314.400,324.400 314.400 C 323.960 314.400,323.600 314.220,323.600 314.000 C 323.600 313.780,323.274 313.600,322.875 313.600 C 322.477 313.600,321.795 313.285,321.360 312.900 C 320.925 312.515,320.307 312.141,319.988 312.068 C 319.669 311.995,319.299 311.761,319.167 311.547 C 319.035 311.333,318.763 311.196,318.563 311.243 C 317.954 311.387,316.000 310.447,316.000 310.010 C 316.000 309.784,315.751 309.600,315.446 309.600 C 315.141 309.600,314.376 309.331,313.746 309.002 C 313.116 308.674,312.285 308.404,311.900 308.402 C 311.515 308.401,311.200 308.220,311.200 308.000 C 311.200 307.780,310.840 307.600,310.400 307.600 C 309.960 307.600,309.600 307.420,309.600 307.200 C 309.600 306.980,309.330 306.800,309.000 306.800 C 308.670 306.800,308.400 306.620,308.400 306.400 C 308.400 306.180,307.939 306.000,307.376 306.000 C 306.796 306.000,306.460 305.827,306.600 305.600 C 306.736 305.380,306.612 305.201,306.324 305.203 C 305.672 305.206,297.449 301.123,297.267 300.705 C 297.193 300.537,296.788 300.400,296.367 300.400 C 295.945 300.400,295.600 300.220,295.600 300.000 C 295.600 299.780,295.328 299.600,294.995 299.600 C 294.439 299.600,292.876 298.877,292.400 298.399 C 292.168 298.166,290.740 297.487,288.929 296.749 C 288.230 296.464,287.748 296.084,287.859 295.905 C 287.969 295.726,287.911 295.606,287.730 295.637 C 286.743 295.809,285.981 295.554,286.238 295.138 C 286.403 294.871,286.349 294.784,286.110 294.932 C 285.619 295.235,283.200 294.104,283.200 293.571 C 283.200 293.367,282.951 293.200,282.646 293.200 C 282.341 293.200,281.576 292.931,280.946 292.602 C 280.316 292.274,279.485 292.004,279.100 292.002 C 278.715 292.001,278.400 291.820,278.400 291.600 C 278.400 291.380,278.040 291.200,277.600 291.200 C 277.160 291.200,276.800 291.020,276.800 290.800 C 276.800 290.580,276.440 290.400,276.000 290.400 C 275.560 290.400,275.200 290.220,275.200 290.000 C 275.200 289.780,274.829 289.600,274.376 289.600 C 273.923 289.600,273.664 289.420,273.800 289.200 C 273.940 288.973,273.604 288.800,273.024 288.800 C 272.461 288.800,272.000 288.654,272.000 288.475 C 272.000 288.296,271.370 287.902,270.600 287.600 C 269.830 287.298,269.200 286.904,269.200 286.725 C 269.200 286.546,268.947 286.400,268.638 286.400 C 267.972 286.400,264.659 284.732,264.467 284.300 C 264.393 284.135,263.988 284.000,263.567 284.000 C 263.145 284.000,262.800 283.820,262.800 283.600 C 262.800 283.380,262.440 283.200,262.000 283.200 C 261.560 283.200,261.200 283.020,261.200 282.800 C 261.200 282.580,260.840 282.400,260.400 282.400 C 259.960 282.400,259.599 282.265,259.597 282.100 C 259.593 281.741,257.656 280.800,256.920 280.800 C 256.634 280.800,256.400 280.656,256.400 280.480 C 256.400 280.305,255.770 279.933,255.000 279.654 C 254.230 279.376,253.600 278.986,253.600 278.787 C 253.600 278.588,253.359 278.518,253.064 278.631 C 252.769 278.744,252.299 278.560,252.019 278.223 C 251.739 277.885,251.348 277.708,251.152 277.830 C 250.955 277.951,250.686 277.769,250.554 277.425 C 250.422 277.081,250.091 276.800,249.819 276.800 C 249.353 276.800,247.472 276.018,245.905 275.174 C 245.523 274.968,244.938 274.800,244.605 274.800 C 244.272 274.800,244.000 274.620,244.000 274.400 C 244.000 274.180,243.640 274.000,243.200 274.000 C 242.760 274.000,242.400 273.820,242.400 273.600 C 242.400 273.380,242.130 273.200,241.800 273.200 C 241.470 273.200,241.200 273.020,241.200 272.800 C 241.200 272.580,240.851 272.400,240.424 272.400 C 239.997 272.400,239.536 272.220,239.400 272.000 C 239.264 271.780,238.803 271.600,238.376 271.600 C 237.949 271.600,237.600 271.420,237.600 271.200 C 237.600 270.980,237.330 270.800,237.000 270.800 C 236.670 270.800,236.400 270.620,236.400 270.400 C 236.400 270.180,236.135 270.000,235.812 270.000 C 235.489 270.000,234.583 269.640,233.800 269.200 C 232.004 268.191,231.883 268.199,232.230 269.300 M187.268 328.300 C 186.765 331.933,186.185 336.934,185.585 342.800 C 185.349 345.110,184.994 348.350,184.797 350.000 C 184.275 354.379,183.553 360.808,182.372 371.600 C 182.144 373.690,181.786 376.605,181.578 378.077 C 181.370 379.549,181.200 380.944,181.200 381.177 C 181.200 381.468,187.053 381.600,200.000 381.600 C 216.752 381.600,218.800 381.532,218.800 380.977 C 218.800 380.634,218.630 379.149,218.422 377.677 C 218.214 376.205,217.856 373.290,217.628 371.200 C 216.610 361.892,216.357 359.606,216.012 356.600 C 214.862 346.556,214.370 342.129,213.589 334.800 C 213.343 332.490,212.958 329.385,212.734 327.900 L 212.328 325.200 200.013 325.200 L 187.698 325.200 187.268 328.300 " stroke="none" fill="#046ca4" fill-rule="evenodd"></path><path id="path3" d="M167.989 269.076 C 167.982 269.474,167.217 270.623,166.289 271.630 C 165.360 272.636,158.312 280.556,150.627 289.230 C 142.942 297.903,135.742 305.996,134.627 307.213 C 133.512 308.430,131.970 310.141,131.200 311.016 C 130.077 312.292,123.239 320.032,119.519 324.237 C 118.870 324.971,132.789 369.103,137.265 380.500 L 137.697 381.600 153.249 381.600 L 168.800 381.600 168.800 325.224 C 168.800 288.071,168.664 268.763,168.400 268.600 C 168.180 268.464,167.995 268.678,167.989 269.076 M231.498 268.635 C 231.334 268.799,231.200 294.283,231.200 325.267 L 231.200 381.600 246.751 381.600 L 262.303 381.600 262.735 380.500 C 266.157 371.790,281.169 325.040,280.725 324.476 C 280.436 324.110,277.878 321.197,275.041 318.005 C 272.203 314.812,269.245 311.480,268.467 310.600 C 267.689 309.720,266.320 308.185,265.426 307.188 C 264.532 306.192,262.614 304.032,261.163 302.388 C 258.716 299.614,242.685 281.564,239.855 278.395 C 239.165 277.622,237.250 275.480,235.600 273.635 C 233.950 271.789,232.419 269.842,232.198 269.308 C 231.977 268.774,231.662 268.471,231.498 268.635 M190.319 298.703 C 185.105 301.286,180.757 303.594,180.658 303.832 C 180.559 304.069,182.036 308.929,183.942 314.632 L 187.406 325.000 199.876 325.106 L 212.346 325.211 212.518 326.106 C 212.653 326.802,212.703 326.734,212.746 325.800 C 212.776 325.140,214.073 320.820,215.629 316.200 C 217.184 311.580,218.611 307.260,218.801 306.600 C 218.991 305.940,219.265 305.012,219.410 304.537 C 219.644 303.772,201.712 293.987,200.104 294.003 C 199.937 294.005,195.534 296.120,190.319 298.703 " stroke="none" fill="#0494e3" fill-rule="evenodd"></path><path id="path4" d="M41.002 333.998 C 40.603 334.439,40.407 334.800,40.567 334.800 C 40.988 334.800,42.128 333.595,41.912 333.379 C 41.811 333.278,41.402 333.556,41.002 333.998 M359.420 334.909 C 359.528 335.188,360.017 335.662,360.508 335.961 C 361.359 336.480,361.355 336.456,360.430 335.453 C 359.348 334.277,359.134 334.162,359.420 334.909 M59.400 350.759 C 56.403 352.510,56.400 352.524,56.400 367.859 L 56.400 381.600 62.600 381.600 L 68.800 381.600 68.800 368.154 C 68.800 355.201,68.769 354.654,67.953 353.202 C 66.328 350.311,62.191 349.130,59.400 350.759 M334.369 350.910 C 331.161 353.071,331.200 352.858,331.200 368.059 L 331.200 381.600 337.600 381.600 L 344.000 381.600 343.983 369.300 C 343.964 356.343,343.774 354.159,342.514 352.471 C 340.636 349.957,336.857 349.232,334.369 350.910 " stroke="none" fill="#04547c" fill-rule="evenodd"></path></g></svg>